<?xml version="1.0" encoding="UTF-8"?>
<svg id="Layer_1" xmlns="http://www.w3.org/2000/svg" version="1.1" viewBox="0 0 286.64 114.32">
  <!-- Generator: Adobe Illustrator 30.0.0, SVG Export Plug-In . SVG Version: 2.1.1 Build 123)  -->
  <defs>
    <style>
      .st0 {
        fill: #fff;
      }
    </style>
  </defs>
  <path class="st0" d="M117.93,39.7s-.01.01,0,0c.71-.01,1.4-.05,2.1-.08-2.37,5.24-5.2,10.87-8.37,16.45,1.78-5.2,3.75-10.33,5.72-15.06-1.69.29-4.88.69-6.6.85-.89.08-1.65.14-2.46.16-4.38,11.18-8.29,23.63-10.49,34.53-2.95,3.58-6,6.77-9.06,9.34-3.66,3.07-6.89,4.86-9.69,5.34-.41.96-.96,2.08-1.68,3.31-.96,1.66-1.96,3.35-2.67,4.54,3.86.73,8.98.09,15.28-4.13,1.97-1.32,3.98-2.95,6-4.84,0,.01,0-.01,0,0,1.28-1.22,2.95-2.86,4.52-4.62,1.01-1.13,2.98-3.51,4.68-5.6.21-.27.43-.52.63-.77,9.13-11.82,17.62-27.04,23.13-40.05.01,0-.01,0,0,0,.4-.94.89-2.02,1.29-3.01.56-1.33,1.3-3.55,1.9-5.28h0c2.26-6.57,3.43-12.08,3.09-15.54-.37-3.93-2.55-5.39-3.82-5.92-1.09-.45-3.3-.91-5.91,1.16-3.45,2.74-8.22,10.91-12.93,21.37-9.59.08-18.63-.67-26.71-2.63-1.04-2.62-3.59-4.47-6.57-4.47-3.91,0-7.11,3.19-7.11,7.11s3.19,7.09,7.11,7.09c1.88,0,3.58-.73,4.86-1.93,7.74,1.88,25.02,2.81,25.03,2.81,3.1.18,8.73-.11,8.73-.11ZM79.31,34.49c-1.46,0-2.66-1.18-2.66-2.65s1.2-2.66,2.66-2.66c1.32,0,2.42.97,2.61,2.25.03.13.04.27.04.41,0,.69-.25,1.32-.68,1.78-.49.53-1.2.86-1.97.86ZM126.64,21.82c-.67,2.66-1.74,5.95-3.17,9.63-.64.04-1.28.07-1.9.11,1.82-3.86,3.57-7.2,5.07-9.74Z"/>
  <path class="st0" d="M40.8,90.91v-.03c1.08-1.66,2.14-3.39,3.18-5.18-.17-2.87-.53-6.41-1.21-9.99-1.09-5.75-4.21-10.84-6.13-13.53-1.6,7.08-3.54,17.37-3.77,26.4-4.71,7.05-9.49,12.16-13.91,13.83-2.67,1-6.23,1.8-7.89-.13-3.26-3.74-2.05-16.83,4.9-29.63,4.68-8.65,10.54-14.03,15.18-14.03.27,0,.53.03.78.07.8.11,1.92.45,3.23,1.42.05.03.29.2.68.52.13.09.28.23.43.36.12.11.24.23.37.35.05.05.09.09.15.15,2,1.88,5.36,5.8,7.36,12.14,1.02,3.23,1.93,6.64,2.63,9.58.08.32.15.64.23.93.12.44.24.89.35,1.36-.01,0-.03.01-.03.03-1.2,1.28-1.93,2.98-1.93,4.86,0,.52.05,1.04.17,1.52.69,3.19,3.53,5.59,6.92,5.59,3.91,0,7.11-3.19,7.11-7.11,0-2.97-1.84-5.52-4.44-6.57-1.09-4.55-2.33-8.65-3.67-12.27,11.56-24.07,20.01-52.12,20.27-62,.04-1.4.15-5.63-3.29-7.12-1.5-.65-3.9-.84-6.75,1.97-9.58,9.43-17.87,30.7-22.78,48.58-1.86-1.17-3.82-1.9-5.88-2.2-8.45-1.18-17.25,5.4-24.11,18.07-7.16,13.21-10.81,30.74-3.9,38.68,2.58,2.97,7.57,5.79,16.71,2.37,2.77-1.04,5.58-2.99,8.38-5.66.03-.03.05-.05.08-.08,1.09-1.14,3.55-3.75,5.76-6.57,1.04-1.33,3.15-4.3,4.82-6.67ZM49.85,90.36c0-1.46,1.18-2.65,2.65-2.65s2.66,1.18,2.66,2.65-1.2,2.66-2.66,2.66-2.65-1.2-2.65-2.66ZM45.82,58.16c4.59-17.8,11.02-33.6,17.25-42.82-2.1,10.35-8.28,29.09-16.04,46.59-.51-.85-1.02-1.66-1.56-2.42.12-.45.23-.89.35-1.34Z"/>
  <path class="st0" d="M237.65,63.5c2.5.19,4.78.36,6.73.49-7.25,9.61-18.42,27.74-9.47,39.07,6.21,7.85,17.45,8.74,28.61,2.28,16.53-9.58,28.04-32.31,18.04-57.22-14.66-36.61-63.78-29.33-111.27-22.29-12.64,1.88-25.44,3.77-37.77,4.91h-.01c-.41,1.89-.99,4.43-1.34,6.09-.16.73-.33,1.45-.49,2.09,13.32-1.13,27.16-3.17,40.79-5.2,46.47-6.89,90.37-13.4,102.69,17.37,5.08,12.68,5.38,35.74-14.64,47.35-5.72,3.31-13.96,5.22-18.34-.32-4.05-5.12.55-14.92,3.65-20.31,4.58-7.97,10.5-14.58,10.55-14.65,1.04-1.14,1.32-2.78.72-4.21-.59-1.41-1.94-2.37-3.47-2.45-.07-.01-4.98-.27-12.32-.81.69-2.4,1.17-4.56,1.41-6.4,1.1-8.42-2.55-10.7-4.83-11.3-4.13-1.1-8.17.19-11.12,3.51-3.59,4.06-4.78,10.19-2.89,14.92,1.21,3.01,3.55,5.15,6.63,6.12,0,0,1.58.4,2.52.49,2.39.24,5.64.46,5.64.46ZM232.19,55.01c-1.24-.28-1.68-.97-1.92-1.56-.75-1.88-.08-4.92,1.45-6.65.84-.94,1.64-1.2,2.22-1.21.21,1.66-.39,5.03-1.76,9.42Z"/>
  <path class="st0" d="M162.4,66.48c1.61-8.46.69-16.14-4.62-19.52-3.71-2.36-7.57-2.41-10.59-.13-3.98,2.98-5.52,9.7-3.69,15.98,1.42,4.83,4.52,8.48,8.7,10.42-.4,1.06-.85,2.14-1.34,3.25-4.44,9.99-10.83,16.69-14.84,15.57-2.16-.6-3.3-1.69-3.81-3.66-.04-.15-.08-.31-.11-.47,3.34-6.35,5.59-12.28,6.63-15.29,2.54-7.29,2.97-10.03.47-11.9-1.64-1.21-3.89-1.02-5.38.44-3.41,3.38-10.01,15.24-9.87,25.04-3.11,5.55-6.84,10.65-10.89,13.23-3.14,2-5.26,1.61-6.59,1.14-1.61-.57-2.2-3.59-2.39-5.35-.4-3.47-.16-7.73.56-12.43-1.09,1.77-2.37,3.67-3.74,5.39-1.33,1.66-3.46,3.93-4.92,5.43.05,1.41.17,2.71.37,3.91,1.16,6.97,4.71,9.59,7.48,10.58,5.77,2.04,14.24,1.2,23.51-12.27,1.64,1.82,3.83,3.14,6.53,3.89,10.06,2.81,19.15-8.49,24.27-20,.39-.88.76-1.77,1.12-2.66.03-.07.05-.13.08-.2.05-.13.12-.28.17-.44.07-.16.12-.32.19-.49l.2-.52c.07-.19.15-.39.23-.6.47-1.28.96-2.63,1.2-3.51.51-1.8.8-3.42,1.06-4.83-.03.01.03-.01,0,0ZM154.48,65.39c-1.88-1.26-2.83-3.17-3.31-4.82-1.06-3.63-.04-6.73.81-7.37.05-.03.11-.04.19-.04.32,0,.86.25,1.33.55,1.6,1.02,2.24,5.43.98,11.68Z"/>
  <path class="st0" d="M77.56,91.36h0c5.95-8.82,10.43-18.51,12.42-24.99,2.33-7.64,2.16-12.46-.53-15.16-2.73-2.73-6.31-3.54-9.83-2.21-8.48,3.19-15.68,19-16.45,31-.36,5.62.65,10.26,2.9,13.56-3.17,3.74-6.57,6.88-10.09,8.88-5.48,3.11-9.63,2.42-13.44-2.28-.93-1.14-1.52-3.69-1.68-7.4-1.14,2.32-2.62,5.04-4.32,7.48-.49.69-1.1,1.5-1.74,2.32h0c.43,1.01.94,1.88,1.54,2.62,4.54,5.6,9.47,7.13,13.55,7.13,1.16,0,2.25-.12,3.23-.32,6.83-1.33,13.44-6.72,19.18-13.6.03.01-.03-.01,0,0,.81-.93,2.31-2.73,3.12-3.88.45-.65,1.35-1.9,2.15-3.16ZM71.5,86.26c-.51-2.13-.47-4.43-.37-5.74.67-10.46,6.93-22.41,11.3-24.06.19-.07.33-.12.49-.12.19,0,.39.08.64.29,1,3.67-4.16,17.66-12.06,29.62Z"/>
  <path class="st0" d="M232.87,64.65c-1.02-.32-2.49-.77-3.78-1.18-2.63,6.37-6.32,13.64-10.97,20.63-7.41,11.16-13.12,15.14-16.01,15.14-.17,0-.25-.03-.25-.01-2.44-2.2.37-20.09,10.46-44.31.84-2.01-.09-4.32-2.1-5.19-1.98-.88-4.32.03-5.22,2.02-14.56,32.3-27.19,46.61-31.74,48.05-.77.24-1.04.08-1.17,0-5.42-3.21,2.25-25.12,12.61-43.17.29-.49.48-.81.52-.91,1.05-1.92.36-4.31-1.54-5.39-1.9-1.06-4.31-.41-5.4,1.46-.04.08-.21.37-.51.88-2.28,3.83-7.68,10.97-14.01,13.36-.05.93-.16,2.04-.37,3.53-.27,1.86-.5,3.57-.79,5,1.8-.29,3.68-.86,5.31-1.59-.17.41-.33.84-.51,1.25-2.54,6.43-10.27,25.99.63,32.44,2.28,1.36,4.91,1.61,7.65.75,5.71-1.81,12.08-9.14,17.9-17.84-.73,5.87-.47,10.95,1.58,14.01,1.57,2.36,4.05,3.65,6.96,3.65,12.47,0,27.09-23.01,34.65-41.5-1.1-.28-2.47-.64-3.9-1.06Z"/>
</svg>